# xmcd
#
# Track frame offsets: 
#        150
#        14225
#        26760
#        39339
#        53773
#        69682
#        78897
#        92696
#        109062
#        123718
#        134792
#        147679
#
# Disc length: 2112 seconds
#
# Revision: 0
# Processed by: cddbd v1.5.2PL0 Copyright (c) Steve Scherf et al.
# Submitted via: ExactAudioCopyFreeDBPlugin 1.0
#
DISCID=b4083e0c
DTITLE=Shane Nicholson - Pitch, Roll and Yaw - Live And Solo
DYEAR=2014
DGENRE=Country
TTITLE0=Sleeping Cold
TTITLE1=Wreck and Ruin
TTITLE2=The Quiet Life
TTITLE3=Everybody Loves You Now
TTITLE4=The Broken Things
TTITLE5=Woe Is Mine
TTITLE6=Summer Dress
TTITLE7=Jimmie Rodgers Was A Vampire
TTITLE8=Whistling Cannonballs
TTITLE9=Flat Nail Joe
TTITLE10=A Little Love
TTITLE11=Thankyou And Goodnight
EXTD=
EXTT0=
EXTT1=
EXTT2=
EXTT3=
EXTT4=
EXTT5=
EXTT6=
EXTT7=
EXTT8=
EXTT9=
EXTT10=
EXTT11=
PLAYORDER=
